<?xml version="1.0" standalone="no"?>
<svg version="1.0" xmlns="http://www.w3.org/2000/svg"
 width="344.000000pt" height="344.000000pt" viewBox="0 0 344.000000 344.000000"
 preserveAspectRatio="xMidYMid meet">

<g transform="translate(0.000000,344.000000) scale(0.100000,-0.100000)"
fill="#000000" stroke="none">
<path d="M1217 3253 c-4 -3 -7 -235 -7 -515 l0 -508 -512 -2 -513 -3 -3 -27
c-3 -22 2 -30 23 -38 16 -6 213 -10 516 -10 l489 0 0 -430 0 -430 -496 0
c-322 0 -502 -4 -515 -10 -23 -13 -25 -55 -3 -64 9 -3 240 -6 515 -6 l499 0 0
-499 c0 -275 3 -506 6 -515 10 -26 53 -20 64 10 6 15 10 221 10 515 l0 489
430 0 430 0 0 -489 c0 -294 4 -500 10 -515 11 -30 54 -36 64 -10 3 9 6 240 6
515 l0 499 499 0 c275 0 506 3 515 6 22 9 20 51 -3 64 -13 6 -193 10 -515 10
l-496 0 0 430 0 430 489 0 c294 0 500 4 515 10 30 11 36 54 10 64 -9 3 -240 6
-515 6 l-499 0 0 499 c0 275 -3 506 -6 515 -10 26 -53 20 -64 -10 -6 -15 -10
-221 -10 -515 l0 -489 -430 0 -430 0 0 489 c0 294 -4 500 -10 515 -9 25 -46
36 -63 19z m933 -1533 l0 -430 -430 0 -430 0 0 430 0 430 430 0 430 0 0 -430z"/>
<path d="M1482 1983 c-7 -2 -17 -14 -23 -25 -9 -17 3 -33 97 -129 l108 -109
-108 -109 c-86 -86 -107 -113 -104 -132 2 -16 11 -25 26 -27 18 -3 47 20 133
104 l109 108 109 -108 c112 -112 128 -120 151 -76 10 19 1 32 -96 131 l-108
109 102 104 c56 56 102 108 102 113 0 12 -33 43 -45 43 -4 0 -55 -46 -111
-102 l-104 -102 -109 107 c-59 59 -110 107 -112 106 -2 0 -10 -3 -17 -6z"/>
<path d="M436 3004 c-9 -8 -16 -20 -16 -26 0 -6 48 -60 107 -120 l107 -108
-113 -114 c-101 -103 -111 -117 -101 -135 6 -12 18 -21 28 -21 10 0 67 50 127
110 l110 110 112 -112 c96 -96 116 -111 131 -102 41 26 28 53 -82 163 l-106
106 105 105 c108 107 120 130 83 154 -15 9 -34 -6 -128 -99 l-110 -109 -108
107 c-60 59 -114 107 -120 107 -6 0 -18 -7 -26 -16z"/>
<path d="M2709 2999 c-61 -9 -98 -29 -141 -77 -51 -56 -72 -118 -65 -192 20
-223 294 -310 440 -140 47 56 60 97 55 180 -3 53 -10 77 -34 116 -51 84 -152
128 -255 113z m108 -84 c50 -21 72 -42 94 -90 56 -121 -27 -245 -163 -245 -99
0 -168 69 -168 169 0 74 30 127 89 158 51 27 97 29 148 8z"/>
<path d="M599 1956 c-100 -36 -159 -124 -159 -238 0 -74 22 -129 70 -176 46
-47 85 -64 157 -70 105 -8 198 41 246 132 30 58 30 174 0 231 -59 111 -196
163 -314 121z m133 -66 c44 -13 93 -52 113 -91 8 -15 15 -51 15 -79 0 -59 -17
-97 -60 -134 -144 -121 -349 37 -271 210 19 43 63 80 109 94 38 11 52 11 94 0z"/>
<path d="M2497 943 c-22 -21 0 -55 98 -153 l105 -105 -111 -111 c-115 -115
-130 -145 -80 -152 19 -3 46 18 132 104 l109 109 108 -108 c59 -59 115 -107
124 -107 16 0 38 27 38 46 0 4 -48 56 -107 116 l-107 108 104 105 c89 89 103
108 94 123 -24 37 -45 26 -148 -77 l-101 -101 -105 105 c-98 98 -132 120 -153
98z"/>
<path d="M585 916 c-59 -27 -118 -88 -135 -141 -7 -20 -10 -67 -8 -105 7 -132
96 -221 228 -228 85 -5 126 8 183 58 144 127 100 361 -80 426 -59 21 -131 17
-188 -10z m196 -79 c55 -37 79 -82 79 -145 0 -132 -120 -216 -237 -167 -21 9
-46 23 -57 33 -27 25 -56 91 -56 133 0 52 39 120 86 146 54 31 139 31 185 0z"/>
</g>
</svg>
